<?xml version="1.0" standalone="no"?>
<!DOCTYPE svg PUBLIC "-//W3C//DTD SVG 20010904//EN"
 "http://www.w3.org/TR/2001/REC-SVG-20010904/DTD/svg10.dtd">
<svg version="1.0" xmlns="http://www.w3.org/2000/svg"
 width="700.000000pt" height="700.000000pt" viewBox="0 0 700.000000 700.000000"
 preserveAspectRatio="xMidYMid meet">
<metadata>
Created by potrace 1.11, written by Peter Selinger 2001-2013
</metadata>
<g transform="translate(0.000000,700.000000) scale(0.100000,-0.100000)"
fill="#000000" stroke="none">
<path d="M3630 6947 c0 -3 205 -211 456 -462 l457 -457 639 0 c352 0 641 2
643 4 2 2 -42 22 -98 44 -77 31 -1512 626 -1657 687 -14 6 -27 11 -30 12 -7 2
-58 23 -95 39 -16 7 -55 23 -85 36 -30 13 -68 29 -85 36 -16 7 -50 20 -75 30
-25 9 -51 22 -57 27 -7 5 -13 7 -13 4z"/>
<path d="M3215 6884 c-71 -30 -143 -61 -160 -68 -16 -8 -174 -74 -350 -146
-258 -107 -1146 -475 -1470 -610 -58 -24 -65 -29 -40 -30 17 -1 306 -1 643 -2
l613 0 457 456 c251 251 452 456 447 455 -6 -1 -68 -25 -140 -55z"/>
<path d="M2286 5711 l-1209 -1209 -1 -1707 c-1 -1059 3 -1709 8 -1713 6 -3
326 -6 713 -6 l703 -1 500 -500 500 -500 1209 1210 1210 1210 0 1712 c0 1319
-3 1713 -12 1714 -7 0 -326 1 -709 2 l-698 2 -497 498 c-274 273 -500 497
-503 497 -3 0 -549 -544 -1214 -1209z m3474 -273 c0 -178 0 -897 0 -1598 l0
-1275 -662 -662 -663 -663 -1597 0 -1598 0 0 1597 0 1598 662 662 663 663
1597 0 1598 0 0 -322z"/>
<path d="M1996 4754 c-182 -43 -338 -189 -394 -370 -37 -120 -34 -208 7 -217
17 -3 61 12 62 22 15 147 64 230 165 280 70 36 181 35 249 -1 75 -39 134 -112
151 -188 4 -19 8 -478 9 -1020 2 -972 2 -986 23 -1038 59 -150 203 -252 356
-252 156 0 283 85 353 236 l28 59 2 435 c5 756 4 734 32 764 38 40 90 52 134
31 70 -33 71 -35 73 -365 l1 -295 29 -73 c52 -131 179 -227 318 -239 190 -16
363 111 405 298 5 24 10 167 11 318 1 310 3 320 74 355 50 25 105 10 138 -37
l23 -32 2 -470 c2 -707 1 -695 45 -779 38 -74 136 -156 218 -185 180 -62 387
32 472 214 l23 50 0 950 0 950 -23 75 c-58 185 -143 310 -276 405 -65 46 -163
95 -189 95 -9 0 -18 4 -21 9 -13 21 -227 34 -319 20 -200 -32 -398 -163 -493
-325 -14 -24 -30 -44 -34 -44 -5 0 -14 17 -21 38 -15 45 -75 135 -120 181 -77
75 -164 122 -269 145 -242 52 -474 -55 -606 -280 -10 -17 -13 -15 -33 25 -54
105 -208 221 -336 252 -72 18 -200 19 -269 3z"/>
<path d="M981 5863 c-13 -32 -34 -82 -47 -111 -13 -29 -24 -55 -24 -57 0 -5
-310 -753 -335 -810 -8 -16 -50 -120 -95 -230 -45 -110 -88 -213 -95 -230 -22
-49 -298 -715 -317 -765 -5 -14 504 488 1131 1115 628 627 1141 1141 1141
1142 0 1 -301 3 -668 3 l-668 0 -23 -57z"/>
<path d="M6025 5183 l0 -638 454 -453 c249 -249 455 -451 457 -449 2 2 -12 41
-32 88 -20 46 -56 134 -81 194 -24 61 -50 124 -57 140 -7 17 -23 53 -34 80
-12 28 -62 149 -112 270 -92 223 -102 247 -120 288 -27 61 -360 868 -360 872
0 2 -13 32 -29 67 -15 35 -38 89 -51 121 -12 31 -25 57 -29 57 -4 0 -7 -287
-6 -637z"/>
<path d="M520 3944 l-445 -444 445 -445 c245 -245 447 -445 450 -445 6 0 4
1769 -2 1775 -2 2 -204 -196 -448 -441z"/>
<path d="M6029 4359 c-2 -164 0 -1742 3 -1744 2 -2 204 196 448 440 l444 444
-447 448 c-432 432 -447 446 -448 412z"/>
<path d="M5802 2226 c-629 -629 -1137 -1145 -1130 -1147 7 -3 307 -4 667 -3
l654 1 42 99 c23 54 68 162 99 239 32 77 64 154 71 170 7 17 29 71 50 120 20
50 42 104 50 120 15 34 165 396 220 530 20 50 43 104 50 120 28 65 372 895
371 895 -1 0 -515 -515 -1144 -1144z"/>
<path d="M63 3348 c9 -23 588 -1423 814 -1968 47 -113 87 -207 89 -209 2 -2 4
284 4 636 l0 641 -456 457 c-251 251 -454 450 -451 443z"/>
<path d="M1185 960 c3 -5 10 -10 15 -10 7 0 550 -223 700 -287 19 -8 44 -19
55 -24 124 -53 1353 -560 1390 -573 11 -4 -185 198 -435 448 l-455 456 -638 0
c-423 0 -636 -3 -632 -10z"/>
<path d="M4102 520 c-248 -247 -447 -450 -443 -450 4 0 52 19 106 41 55 23
136 56 180 74 78 32 585 242 795 330 58 25 296 124 530 220 564 233 550 227
550 232 0 1 -285 3 -634 3 l-634 0 -450 -450z"/>
</g>
</svg>
