<?xml version="1.0" encoding="utf-8"?>
<!-- Generator: Adobe Illustrator 22.0.1, SVG Export Plug-In . SVG Version: 6.00 Build 0)  -->
<svg version="1.1" id="レイヤー_1" xmlns="http://www.w3.org/2000/svg" xmlns:xlink="http://www.w3.org/1999/xlink" x="0px"
	 y="0px" viewBox="0 0 194.3 194.3" style="enable-background:new 0 0 194.3 194.3;" xml:space="preserve">
<style type="text/css">
	.st0{clip-path:url(#SVGID_2_);}
	.st1{fill:#E60012;}
</style>
<g>
	<defs>
		<path id="SVGID_1_" d="M165.8,165.8L165.8,165.8l-68.7,28.5v0l0,0l-68.7-28.5L0,97.2l28.5-68.7L97.1,0l0,0l68.7,28.5l28.5,68.7
			L165.8,165.8z"/>
	</defs>
	<clipPath id="SVGID_2_">
		<use xlink:href="#SVGID_1_"  style="overflow:visible;"/>
	</clipPath>
	<g class="st0">
		<g>
			<polygon class="st1" points="27,122 27,72.3 2.1,97.2 			"/>
			<path class="st1" d="M125.6,29.9c-0.1,0-0.2,0-0.3,0c0,0-0.1,0-0.1,0c-0.1,0-0.1,0-0.2,0c-0.1,0-0.1-0.1-0.1-0.1
				c0,0-0.1,0-0.1-0.1c-0.1-0.1-0.2-0.1-0.2-0.2L97.1,2.1L69.7,29.5c0,0,0,0,0,0L29.9,69.3v56.3v38.8h38.7c0.4,0,0.8,0.1,1.1,0.4
				l27.4,27.4l27.4-27.4c0,0,0,0,0,0l39.8-39.8V68.7l0-38.8H125.6z M159.9,68.7v54.4l-36.8,36.8H68.7c0,0,0,0,0,0H34.4v-34.3V71.2
				l36.8-36.8h54.4l0,0c0,0,0,0,0,0h34.3V68.7z"/>
			<path class="st1" d="M199.6,94.5l-28.3-68.3c0,0,0,0,0-0.1c0,0,0-0.1,0-0.1c-0.1-0.1-0.1-0.3-0.2-0.4c0,0,0,0,0,0
				c-0.3-0.6-0.7-1.1-1.2-1.6c0,0,0,0,0,0c-0.1-0.1-0.2-0.2-0.3-0.3c0,0-0.1-0.1-0.1-0.1c-0.1-0.1-0.2-0.1-0.3-0.2
				c-0.1,0-0.1-0.1-0.2-0.1c-0.1-0.1-0.2-0.1-0.2-0.1c-0.1,0-0.1-0.1-0.2-0.1c-0.1,0-0.2-0.1-0.3-0.1c0,0,0,0,0,0L99.4-5.5
				c-0.1,0-0.1,0-0.1-0.1c-0.1,0-0.3-0.1-0.4-0.1c-0.1,0-0.1,0-0.2,0c-0.1,0-0.3-0.1-0.4-0.1c-0.1,0-0.1,0-0.2,0
				c-0.1,0-0.3,0-0.4-0.1c-0.1,0-0.1,0-0.2,0c-0.1,0-0.3,0-0.4,0c0,0-0.1,0-0.1,0c0,0,0,0,0,0c0,0-0.1,0-0.1,0c-0.1,0-0.3,0-0.4,0
				c-0.1,0-0.1,0-0.2,0c0,0-0.1,0-0.1,0c0,0,0,0,0,0c-0.1,0-0.2,0-0.3,0c0,0-0.1,0-0.1,0c0,0,0,0-0.1,0c0,0-0.1,0-0.1,0
				c-0.1,0-0.2,0.1-0.4,0.1c0,0,0,0,0,0c0,0-0.1,0-0.1,0.1c-0.1,0-0.2,0.1-0.3,0.1c0,0,0,0,0,0l0,0c0,0,0,0,0,0L26.2,23
				C26.1,23,26,23,26,23.1c0,0-0.1,0-0.1,0.1c-0.2,0.1-0.5,0.2-0.7,0.4c0,0,0,0-0.1,0c-0.2,0.2-0.4,0.3-0.6,0.5c0,0,0,0,0,0
				c-0.2,0.2-0.4,0.4-0.6,0.6c0,0-0.1,0.1-0.1,0.1c-0.2,0.2-0.3,0.4-0.4,0.6c0,0,0,0.1-0.1,0.1c-0.1,0.2-0.3,0.5-0.4,0.7
				c0,0,0,0,0,0L-5.5,94.9c0,0,0,0,0,0c0,0,0,0,0,0.1c0,0.1-0.1,0.2-0.1,0.3c0,0.1-0.1,0.1-0.1,0.2c0,0,0,0,0,0c0,0.1,0,0.1-0.1,0.2
				c0,0,0,0,0,0c0,0.1,0,0.2-0.1,0.2c0,0,0,0,0,0.1c0,0.1,0,0.1,0,0.2c0,0.1,0,0.2,0,0.2c0,0,0,0.1,0,0.1c0,0.1,0,0.1,0,0.2
				c0,0.1,0,0.1,0,0.2c0,0.1,0,0.1,0,0.2c0,0.1,0,0.1,0,0.2c0,0.1,0,0.1,0,0.2c0,0.1,0,0.1,0,0.2c0,0.1,0,0.1,0,0.2c0,0,0,0.1,0,0.1
				c0,0.1,0,0.2,0,0.2c0,0.1,0,0.1,0,0.2c0,0,0,0,0,0.1c0,0.1,0,0.2,0.1,0.2c0,0,0,0,0,0c0,0.1,0,0.1,0.1,0.2c0,0,0,0,0,0
				c0,0.1,0,0.1,0.1,0.2c0,0.1,0.1,0.2,0.1,0.3c0,0,0,0,0,0.1l0,0l28.4,68.7c0,0,0,0,0,0c0.1,0.2,0.2,0.5,0.4,0.7c0,0,0,0.1,0.1,0.1
				c0.1,0.2,0.3,0.4,0.4,0.6c0,0,0.1,0.1,0.1,0.1c0.2,0.2,0.3,0.4,0.5,0.6c0,0,0,0,0,0c0.2,0.2,0.4,0.3,0.6,0.5c0,0,0,0,0.1,0
				c0.2,0.1,0.4,0.3,0.7,0.4c0,0,0.1,0,0.1,0.1c0.1,0,0.1,0.1,0.2,0.1l68.7,28.5c0,0,0.1,0,0.1,0c0.1,0,0.1,0.1,0.2,0.1
				c0.1,0.1,0.3,0.1,0.4,0.1c0.1,0,0.1,0,0.2,0.1c0.2,0,0.3,0.1,0.5,0.1c0.1,0,0.1,0,0.2,0c0.2,0,0.4,0,0.7,0h0l0,0
				c0.2,0,0.4,0,0.7,0c0.1,0,0.1,0,0.2,0c0.2,0,0.3-0.1,0.5-0.1c0.1,0,0.1,0,0.2-0.1c0.1,0,0.3-0.1,0.4-0.1c0.1,0,0.1,0,0.2-0.1
				c0,0,0.1,0,0.1,0l68.7-28.5c0.1,0,0.1-0.1,0.2-0.1c0.1,0,0.1-0.1,0.2-0.1c0.2-0.1,0.4-0.2,0.6-0.4c0,0,0.1-0.1,0.1-0.1
				c0.2-0.1,0.4-0.3,0.5-0.4c0,0,0.1-0.1,0.1-0.1c0.2-0.2,0.3-0.3,0.5-0.5c0-0.1,0.1-0.1,0.1-0.2c0.1-0.2,0.3-0.4,0.4-0.6
				c0-0.1,0.1-0.1,0.1-0.2c0.1-0.2,0.2-0.4,0.3-0.6c0,0,0,0,0-0.1l28.3-68.4c0.4-0.8,0.6-1.6,0.6-2.5
				C200.3,96.2,200,95.3,199.6,94.5z M195.3,98.2l-28.4,28.5h0l-37.7,37.7h36.7c0.8,0,1.5,0.7,1.5,1.5c0,0.8-0.7,1.5-1.5,1.5h-39.6
				l-28,28c-0.3,0.3-0.7,0.4-1.1,0.4c-0.4,0-0.8-0.1-1.1-0.4l-28-28H28.4c-0.8,0-1.5-0.7-1.5-1.5v-39.6l-28-28c0,0,0,0,0,0
				c-0.3-0.3-0.4-0.7-0.4-1.1c0-0.4,0.1-0.8,0.4-1.1c0,0,0,0,0,0l28.4-28.4c0,0,0,0,0,0l37.7-37.7H28.4c-0.8,0-1.5-0.7-1.5-1.5
				c0-0.8,0.7-1.5,1.5-1.5h39.6l28-28c0,0,0,0,0,0c0.6-0.6,1.5-0.6,2.1,0l28,28h39.6c0.8,0,1.5,0.7,1.5,1.5l0,39.6l28,28
				C195.9,96.7,195.9,97.6,195.3,98.2z"/>
			<polygon class="st1" points="167.3,122 192.2,97.2 167.3,72.3 			"/>
		</g>
		<g>
			<path class="st1" d="M136.2,71.6c-3.5-5.8-9.8-9.7-17.1-9.7c-7.7,0-14.5,4.4-17.8,10.9c-1.9-6.3-7.7-10.9-14.6-10.9
				c-6.1,0-11.4,3.6-13.8,8.8c-2.4-5.2-7.7-8.8-13.9-8.8c-8.4,0-15.3,6.8-15.3,15.4c0,0.8,0.6,1.4,1.4,1.4c0.8,0,1.4-0.6,1.4-1.4
				c0-4.3,3.5-7.9,7.9-7.9c4.3,0,7.9,3.5,7.9,7.9l0,51.8c0,5.8,4.8,10.6,10.6,10.6c5.8,0,10.6-4.8,10.6-10.6l0-28.9
				c0-1.8,1.5-3.3,3.3-3.3c1.8,0,3.3,1.5,3.3,3.3v13.6c0,5.8,4.8,10.6,10.6,10.6c5.8,0,10.6-4.8,10.6-10.6v-13.6
				c0-1.8,1.5-3.3,3.3-3.3c1.8,0,3.3,1.5,3.3,3.3V129c0,5.8,4.8,10.6,10.6,10.6c5.9,0,10.6-4.8,10.6-10.6c0,0,0-42.5,0-47.2
				C139.1,77.1,136.2,71.6,136.2,71.6z"/>
		</g>
	</g>
</g>
</svg>
